<?xml version="1.0" encoding="UTF-8"?>
<svg width="300" height="300" viewBox="0 0 300 300" fill="none" xmlns="http://www.w3.org/2000/svg">
    <rect width="300" height="300" rx="20" fill="#4285F4"/>
    <path d="M150 60C101.34 60 62 99.34 62 148C62 196.66 101.34 236 150 236C198.66 236 238 196.66 238 148C238 99.34 198.66 60 150 60ZM150 220C110.26 220 78 187.74 78 148C78 108.26 110.26 76 150 76C189.74 76 222 108.26 222 148C222 187.74 189.74 220 150 220Z" fill="#FFFFFF"/>
    <path d="M150 92C119.07 92 94 117.07 94 148C94 178.93 119.07 204 150 204C180.93 204 206 178.93 206 148C206 117.07 180.93 92 150 92ZM150 188C127.91 188 110 170.09 110 148C110 125.91 127.91 108 150 108C172.09 108 190 125.91 190 148C190 170.09 172.09 188 150 188Z" fill="#FFFFFF"/>
    <text x="150" y="270" text-anchor="middle" fill="#FFFFFF" font-family="Arial, sans-serif" font-size="24" font-weight="bold">GCP</text>
</svg> 